<?xml version="1.0" encoding="UTF-8" standalone="no"?><svg xmlns="http://www.w3.org/2000/svg" xmlns:xlink="http://www.w3.org/1999/xlink" contentScriptType="application/ecmascript" contentStyleType="text/css" height="624px" preserveAspectRatio="none" style="width:671px;height:624px;background:#123749;" version="1.1" viewBox="0 0 671 624" width="671px" zoomAndPan="magnify"><defs><filter height="300%" id="f9xjv8hsh4ss7" width="300%" x="-1" y="-1"><feGaussianBlur result="blurOut" stdDeviation="2.0"/><feColorMatrix in="blurOut" result="blurOut2" type="matrix" values="0 0 0 0 0 0 0 0 0 0 0 0 0 0 0 0 0 0 .4 0"/><feOffset dx="4.0" dy="4.0" in="blurOut2" result="blurOut3"/><feBlend in="SourceGraphic" in2="blurOut3" mode="normal"/></filter></defs><g><text fill="#FAF0E6" font-family="sans-serif" font-size="18" lengthAdjust="spacingAndGlyphs" textLength="122" x="286" y="16.708">Class diagram</text><!--MD5=[ac13618b1a974308c1f12eb6c57723dc]
class Event--><rect fill="#123749" filter="url(#f9xjv8hsh4ss7)" height="176.0469" id="Event" rx="10" ry="10" style="stroke: #EEB258; stroke-width: 1.5;" width="156" x="488" y="436.9531"/><ellipse cx="544.25" cy="452.9531" fill="#ADD1B2" rx="11" ry="11" style="stroke: #EEB258; stroke-width: 1.0;"/><path d="M547.2188,458.5938 Q546.6406,458.8906 546,459.0313 Q545.3594,459.1875 544.6563,459.1875 Q542.1563,459.1875 540.8281,457.5469 Q539.5156,455.8906 539.5156,452.7656 Q539.5156,449.6406 540.8281,447.9844 Q542.1563,446.3281 544.6563,446.3281 Q545.3594,446.3281 546,446.4844 Q546.6563,446.6406 547.2188,446.9375 L547.2188,449.6563 Q546.5938,449.0781 546,448.8125 Q545.4063,448.5313 544.7813,448.5313 Q543.4375,448.5313 542.75,449.6094 Q542.0625,450.6719 542.0625,452.7656 Q542.0625,454.8594 542.75,455.9375 Q543.4375,457 544.7813,457 Q545.4063,457 546,456.7344 Q546.5938,456.4531 547.2188,455.875 L547.2188,458.5938 Z "/><text fill="#FFFFFF" font-family="sans-serif" font-size="12" lengthAdjust="spacingAndGlyphs" textLength="35" x="564.75" y="457.1074">Event</text><line style="stroke: #EEB258; stroke-width: 1.5;" x1="489" x2="643" y1="468.9531" y2="468.9531"/><rect fill="none" height="6" style="stroke: #C82930; stroke-width: 1.0;" width="6" x="496" y="476.9531"/><text fill="#FAF0E6" font-family="sans-serif" font-size="11" lengthAdjust="spacingAndGlyphs" textLength="32" x="508" y="483.1636">id: int</text><rect fill="none" height="6" style="stroke: #C82930; stroke-width: 1.0;" width="6" x="496" y="489.7578"/><text fill="#FAF0E6" font-family="sans-serif" font-size="11" lengthAdjust="spacingAndGlyphs" textLength="84" x="508" y="495.9683">contract_id: int</text><rect fill="none" height="6" style="stroke: #C82930; stroke-width: 1.0;" width="6" x="496" y="502.5625"/><text fill="#FAF0E6" font-family="sans-serif" font-size="11" lengthAdjust="spacingAndGlyphs" textLength="85" x="508" y="508.7729">client_info: dict</text><rect fill="none" height="6" style="stroke: #C82930; stroke-width: 1.0;" width="6" x="496" y="515.3672"/><text fill="#FAF0E6" font-family="sans-serif" font-size="11" lengthAdjust="spacingAndGlyphs" textLength="82" x="508" y="521.5776">date_start: str</text><rect fill="none" height="6" style="stroke: #C82930; stroke-width: 1.0;" width="6" x="496" y="528.1719"/><text fill="#FAF0E6" font-family="sans-serif" font-size="11" lengthAdjust="spacingAndGlyphs" textLength="76" x="508" y="534.3823">date_end: str</text><rect fill="none" height="6" style="stroke: #C82930; stroke-width: 1.0;" width="6" x="496" y="540.9766"/><text fill="#FAF0E6" font-family="sans-serif" font-size="11" lengthAdjust="spacingAndGlyphs" textLength="123" x="508" y="547.187">epic_contact: Support</text><rect fill="none" height="6" style="stroke: #C82930; stroke-width: 1.0;" width="6" x="496" y="553.7813"/><text fill="#FAF0E6" font-family="sans-serif" font-size="11" lengthAdjust="spacingAndGlyphs" textLength="68" x="508" y="559.9917">location: str</text><rect fill="none" height="6" style="stroke: #C82930; stroke-width: 1.0;" width="6" x="496" y="566.5859"/><text fill="#FAF0E6" font-family="sans-serif" font-size="11" lengthAdjust="spacingAndGlyphs" textLength="81" x="508" y="572.7964">attendees: str</text><rect fill="none" height="6" style="stroke: #C82930; stroke-width: 1.0;" width="6" x="496" y="579.3906"/><text fill="#FAF0E6" font-family="sans-serif" font-size="11" lengthAdjust="spacingAndGlyphs" textLength="56" x="508" y="585.6011">notes: str</text><line style="stroke: #EEB258; stroke-width: 1.5;" x1="489" x2="643" y1="592.1953" y2="592.1953"/><ellipse cx="499" cy="603.1953" fill="#84BE84" rx="3" ry="3" style="stroke: #038048; stroke-width: 1.0;"/><text fill="#FAF0E6" font-family="sans-serif" font-size="11" lengthAdjust="spacingAndGlyphs" textLength="130" x="508" y="606.4058">method1(): ReturnType</text><!--MD5=[461026a38b737c4ce5e8254b9a577e21]
class Contract--><rect fill="#123749" filter="url(#f9xjv8hsh4ss7)" height="150.4375" id="Contract" rx="10" ry="10" style="stroke: #EEB258; stroke-width: 1.5;" width="207" x="245.5" y="449.9531"/><ellipse cx="317.75" cy="465.9531" fill="#ADD1B2" rx="11" ry="11" style="stroke: #EEB258; stroke-width: 1.0;"/><path d="M320.7188,471.5938 Q320.1406,471.8906 319.5,472.0313 Q318.8594,472.1875 318.1563,472.1875 Q315.6563,472.1875 314.3281,470.5469 Q313.0156,468.8906 313.0156,465.7656 Q313.0156,462.6406 314.3281,460.9844 Q315.6563,459.3281 318.1563,459.3281 Q318.8594,459.3281 319.5,459.4844 Q320.1563,459.6406 320.7188,459.9375 L320.7188,462.6563 Q320.0938,462.0781 319.5,461.8125 Q318.9063,461.5313 318.2813,461.5313 Q316.9375,461.5313 316.25,462.6094 Q315.5625,463.6719 315.5625,465.7656 Q315.5625,467.8594 316.25,468.9375 Q316.9375,470 318.2813,470 Q318.9063,470 319.5,469.7344 Q320.0938,469.4531 320.7188,468.875 L320.7188,471.5938 Z "/><text fill="#FFFFFF" font-family="sans-serif" font-size="12" lengthAdjust="spacingAndGlyphs" textLength="54" x="338.25" y="470.1074">Contract</text><line style="stroke: #EEB258; stroke-width: 1.5;" x1="246.5" x2="451.5" y1="481.9531" y2="481.9531"/><rect fill="none" height="6" style="stroke: #C82930; stroke-width: 1.0;" width="6" x="253.5" y="489.9531"/><text fill="#FAF0E6" font-family="sans-serif" font-size="11" lengthAdjust="spacingAndGlyphs" textLength="32" x="265.5" y="496.1636">id: int</text><rect fill="none" height="6" style="stroke: #C82930; stroke-width: 1.0;" width="6" x="253.5" y="502.7578"/><text fill="#FAF0E6" font-family="sans-serif" font-size="11" lengthAdjust="spacingAndGlyphs" textLength="70" x="265.5" y="508.9683">client: Client</text><rect fill="none" height="6" style="stroke: #C82930; stroke-width: 1.0;" width="6" x="253.5" y="515.5625"/><text fill="#FAF0E6" font-family="sans-serif" font-size="11" lengthAdjust="spacingAndGlyphs" textLength="146" x="265.5" y="521.7729">epic_contact: Commercial</text><rect fill="none" height="6" style="stroke: #C82930; stroke-width: 1.0;" width="6" x="253.5" y="528.3672"/><text fill="#FAF0E6" font-family="sans-serif" font-size="11" lengthAdjust="spacingAndGlyphs" textLength="107" x="265.5" y="534.5776">total_amount: float</text><rect fill="none" height="6" style="stroke: #C82930; stroke-width: 1.0;" width="6" x="253.5" y="541.1719"/><text fill="#FAF0E6" font-family="sans-serif" font-size="11" lengthAdjust="spacingAndGlyphs" textLength="103" x="265.5" y="547.3823">due_amount: float</text><rect fill="none" height="6" style="stroke: #C82930; stroke-width: 1.0;" width="6" x="253.5" y="553.9766"/><text fill="#FAF0E6" font-family="sans-serif" font-size="11" lengthAdjust="spacingAndGlyphs" textLength="98" x="265.5" y="560.187">date_created: str</text><rect fill="none" height="6" style="stroke: #C82930; stroke-width: 1.0;" width="6" x="253.5" y="566.7813"/><text fill="#FAF0E6" font-family="sans-serif" font-size="11" lengthAdjust="spacingAndGlyphs" textLength="112" x="265.5" y="572.9917">signed_status: bool</text><line style="stroke: #EEB258; stroke-width: 1.5;" x1="246.5" x2="451.5" y1="579.5859" y2="579.5859"/><ellipse cx="256.5" cy="590.5859" fill="#84BE84" rx="3" ry="3" style="stroke: #038048; stroke-width: 1.0;"/><text fill="#FAF0E6" font-family="sans-serif" font-size="11" lengthAdjust="spacingAndGlyphs" textLength="181" x="265.5" y="593.7964">get_client_infos(self.Client): dict</text><!--MD5=[ed6624c6556d5e7b1bd23032162d20b7]
class Client--><rect fill="#123749" filter="url(#f9xjv8hsh4ss7)" height="150.4375" id="Client" rx="10" ry="10" style="stroke: #EEB258; stroke-width: 1.5;" width="172" x="38" y="449.9531"/><ellipse cx="102.25" cy="465.9531" fill="#ADD1B2" rx="11" ry="11" style="stroke: #EEB258; stroke-width: 1.0;"/><path d="M105.2188,471.5938 Q104.6406,471.8906 104,472.0313 Q103.3594,472.1875 102.6563,472.1875 Q100.1563,472.1875 98.8281,470.5469 Q97.5156,468.8906 97.5156,465.7656 Q97.5156,462.6406 98.8281,460.9844 Q100.1563,459.3281 102.6563,459.3281 Q103.3594,459.3281 104,459.4844 Q104.6563,459.6406 105.2188,459.9375 L105.2188,462.6563 Q104.5938,462.0781 104,461.8125 Q103.4063,461.5313 102.7813,461.5313 Q101.4375,461.5313 100.75,462.6094 Q100.0625,463.6719 100.0625,465.7656 Q100.0625,467.8594 100.75,468.9375 Q101.4375,470 102.7813,470 Q103.4063,470 104,469.7344 Q104.5938,469.4531 105.2188,468.875 L105.2188,471.5938 Z "/><text fill="#FFFFFF" font-family="sans-serif" font-size="12" lengthAdjust="spacingAndGlyphs" textLength="35" x="122.75" y="470.1074">Client</text><line style="stroke: #EEB258; stroke-width: 1.5;" x1="39" x2="209" y1="481.9531" y2="481.9531"/><rect fill="none" height="6" style="stroke: #C82930; stroke-width: 1.0;" width="6" x="46" y="489.9531"/><text fill="#FAF0E6" font-family="sans-serif" font-size="11" lengthAdjust="spacingAndGlyphs" textLength="32" x="58" y="496.1636">id: int</text><rect fill="none" height="6" style="stroke: #C82930; stroke-width: 1.0;" width="6" x="46" y="502.7578"/><text fill="#FAF0E6" font-family="sans-serif" font-size="11" lengthAdjust="spacingAndGlyphs" textLength="56" x="58" y="508.9683">name: str</text><rect fill="none" height="6" style="stroke: #C82930; stroke-width: 1.0;" width="6" x="46" y="515.5625"/><text fill="#FAF0E6" font-family="sans-serif" font-size="11" lengthAdjust="spacingAndGlyphs" textLength="55" x="58" y="521.7729">email: str</text><rect fill="none" height="6" style="stroke: #C82930; stroke-width: 1.0;" width="6" x="46" y="528.3672"/><text fill="#FAF0E6" font-family="sans-serif" font-size="11" lengthAdjust="spacingAndGlyphs" textLength="59" x="58" y="534.5776">phone: str</text><rect fill="none" height="6" style="stroke: #C82930; stroke-width: 1.0;" width="6" x="46" y="541.1719"/><text fill="#FAF0E6" font-family="sans-serif" font-size="11" lengthAdjust="spacingAndGlyphs" textLength="75" x="58" y="547.3823">company: str</text><rect fill="none" height="6" style="stroke: #C82930; stroke-width: 1.0;" width="6" x="46" y="553.9766"/><text fill="#FAF0E6" font-family="sans-serif" font-size="11" lengthAdjust="spacingAndGlyphs" textLength="98" x="58" y="560.187">date_created: str</text><rect fill="none" height="6" style="stroke: #C82930; stroke-width: 1.0;" width="6" x="46" y="566.7813"/><text fill="#FAF0E6" font-family="sans-serif" font-size="11" lengthAdjust="spacingAndGlyphs" textLength="101" x="58" y="572.9917">date_updated: str</text><rect fill="none" height="6" style="stroke: #C82930; stroke-width: 1.0;" width="6" x="46" y="579.5859"/><text fill="#FAF0E6" font-family="sans-serif" font-size="11" lengthAdjust="spacingAndGlyphs" textLength="146" x="58" y="585.7964">epic_contact: Commercial</text><line style="stroke: #EEB258; stroke-width: 1.5;" x1="39" x2="209" y1="592.3906" y2="592.3906"/><!--MD5=[3fd616f346a44cd59a91eb10b19e157c]
class User--><rect fill="#123749" filter="url(#f9xjv8hsh4ss7)" height="163.2422" id="User" rx="10" ry="10" style="stroke: #EEB258; stroke-width: 1.5;" width="176" x="279" y="28.9531"/><ellipse cx="348.25" cy="44.9531" fill="#ADD1B2" rx="11" ry="11" style="stroke: #EEB258; stroke-width: 1.0;"/><path d="M351.2188,50.5938 Q350.6406,50.8906 350,51.0313 Q349.3594,51.1875 348.6563,51.1875 Q346.1563,51.1875 344.8281,49.5469 Q343.5156,47.8906 343.5156,44.7656 Q343.5156,41.6406 344.8281,39.9844 Q346.1563,38.3281 348.6563,38.3281 Q349.3594,38.3281 350,38.4844 Q350.6563,38.6406 351.2188,38.9375 L351.2188,41.6563 Q350.5938,41.0781 350,40.8125 Q349.4063,40.5313 348.7813,40.5313 Q347.4375,40.5313 346.75,41.6094 Q346.0625,42.6719 346.0625,44.7656 Q346.0625,46.8594 346.75,47.9375 Q347.4375,49 348.7813,49 Q349.4063,49 350,48.7344 Q350.5938,48.4531 351.2188,47.875 L351.2188,50.5938 Z "/><text fill="#FFFFFF" font-family="sans-serif" font-size="12" lengthAdjust="spacingAndGlyphs" textLength="29" x="368.75" y="49.1074">User</text><line style="stroke: #EEB258; stroke-width: 1.5;" x1="280" x2="454" y1="60.9531" y2="60.9531"/><rect fill="none" height="6" style="stroke: #C82930; stroke-width: 1.0;" width="6" x="287" y="68.9531"/><text fill="#FAF0E6" font-family="sans-serif" font-size="11" lengthAdjust="spacingAndGlyphs" textLength="42" x="299" y="75.1636">id: uuid</text><rect fill="none" height="6" style="stroke: #C82930; stroke-width: 1.0;" width="6" x="287" y="81.7578"/><text fill="#FAF0E6" font-family="sans-serif" font-size="11" lengthAdjust="spacingAndGlyphs" textLength="56" x="299" y="87.9683">name: str</text><rect fill="none" height="6" style="stroke: #C82930; stroke-width: 1.0;" width="6" x="287" y="94.5625"/><text fill="#FAF0E6" font-family="sans-serif" font-size="11" lengthAdjust="spacingAndGlyphs" textLength="55" x="299" y="100.7729">email: str</text><rect fill="none" height="6" style="stroke: #C82930; stroke-width: 1.0;" width="6" x="287" y="107.3672"/><text fill="#FAF0E6" font-family="sans-serif" font-size="11" lengthAdjust="spacingAndGlyphs" textLength="128" x="299" y="113.5776">password: hashed_str</text><rect fill="none" height="6" style="stroke: #C82930; stroke-width: 1.0;" width="6" x="287" y="120.1719"/><text fill="#FAF0E6" font-family="sans-serif" font-size="11" lengthAdjust="spacingAndGlyphs" textLength="46" x="299" y="126.3823">role: str</text><rect fill="none" height="6" style="stroke: #C82930; stroke-width: 1.0;" width="6" x="287" y="132.9766"/><text fill="#FAF0E6" font-family="sans-serif" font-size="11" lengthAdjust="spacingAndGlyphs" textLength="150" x="299" y="139.187">permissions: Permissions</text><line style="stroke: #EEB258; stroke-width: 1.5;" x1="280" x2="454" y1="145.7813" y2="145.7813"/><ellipse cx="290" cy="156.7813" fill="#84BE84" rx="3" ry="3" style="stroke: #038048; stroke-width: 1.0;"/><text fill="#FAF0E6" font-family="sans-serif" font-size="11" lengthAdjust="spacingAndGlyphs" textLength="106" x="299" y="159.9917">getContracts(): list</text><ellipse cx="290" cy="169.5859" fill="#84BE84" rx="3" ry="3" style="stroke: #038048; stroke-width: 1.0;"/><text fill="#FAF0E6" font-family="sans-serif" font-size="11" lengthAdjust="spacingAndGlyphs" textLength="89" x="299" y="172.7964">getEvents(): list</text><ellipse cx="290" cy="182.3906" fill="#84BE84" rx="3" ry="3" style="stroke: #038048; stroke-width: 1.0;"/><text fill="#FAF0E6" font-family="sans-serif" font-size="11" lengthAdjust="spacingAndGlyphs" textLength="85" x="299" y="185.6011">getUsers(): list</text><!--MD5=[c632d1c053aec273d59b6543566c7cbb]
class Commercial--><rect fill="#123749" filter="url(#f9xjv8hsh4ss7)" height="99.2188" id="Commercial" rx="10" ry="10" style="stroke: #EEB258; stroke-width: 1.5;" width="169" x="39.5" y="264.9531"/><ellipse cx="83.75" cy="280.9531" fill="#ADD1B2" rx="11" ry="11" style="stroke: #EEB258; stroke-width: 1.0;"/><path d="M86.7188,286.5938 Q86.1406,286.8906 85.5,287.0313 Q84.8594,287.1875 84.1563,287.1875 Q81.6563,287.1875 80.3281,285.5469 Q79.0156,283.8906 79.0156,280.7656 Q79.0156,277.6406 80.3281,275.9844 Q81.6563,274.3281 84.1563,274.3281 Q84.8594,274.3281 85.5,274.4844 Q86.1563,274.6406 86.7188,274.9375 L86.7188,277.6563 Q86.0938,277.0781 85.5,276.8125 Q84.9063,276.5313 84.2813,276.5313 Q82.9375,276.5313 82.25,277.6094 Q81.5625,278.6719 81.5625,280.7656 Q81.5625,282.8594 82.25,283.9375 Q82.9375,285 84.2813,285 Q84.9063,285 85.5,284.7344 Q86.0938,284.4531 86.7188,283.875 L86.7188,286.5938 Z "/><text fill="#FFFFFF" font-family="sans-serif" font-size="12" lengthAdjust="spacingAndGlyphs" textLength="72" x="104.25" y="285.1074">Commercial</text><line style="stroke: #EEB258; stroke-width: 1.5;" x1="40.5" x2="207.5" y1="296.9531" y2="296.9531"/><line style="stroke: #EEB258; stroke-width: 1.5;" x1="40.5" x2="207.5" y1="304.9531" y2="304.9531"/><ellipse cx="50.5" cy="315.9531" fill="#84BE84" rx="3" ry="3" style="stroke: #038048; stroke-width: 1.0;"/><text fill="#FAF0E6" font-family="sans-serif" font-size="11" lengthAdjust="spacingAndGlyphs" textLength="76" x="59.5" y="319.1636">createClient()</text><ellipse cx="50.5" cy="328.7578" fill="#84BE84" rx="3" ry="3" style="stroke: #038048; stroke-width: 1.0;"/><text fill="#FAF0E6" font-family="sans-serif" font-size="11" lengthAdjust="spacingAndGlyphs" textLength="111" x="59.5" y="331.9683">updateClient(Client)</text><ellipse cx="50.5" cy="341.5625" fill="#84BE84" rx="3" ry="3" style="stroke: #038048; stroke-width: 1.0;"/><text fill="#FAF0E6" font-family="sans-serif" font-size="11" lengthAdjust="spacingAndGlyphs" textLength="75" x="59.5" y="344.7729">createEvent()</text><ellipse cx="50.5" cy="354.3672" fill="#84BE84" rx="3" ry="3" style="stroke: #038048; stroke-width: 1.0;"/><text fill="#FAF0E6" font-family="sans-serif" font-size="11" lengthAdjust="spacingAndGlyphs" textLength="143" x="59.5" y="357.5776">updateContract(Contract)</text><!--MD5=[b24ed8d4ae84bae9290d9aab401637c7]
class Manager--><rect fill="#123749" filter="url(#f9xjv8hsh4ss7)" height="124.8281" id="Manager" rx="10" ry="10" style="stroke: #EEB258; stroke-width: 1.5;" width="246" x="244" y="251.9531"/><ellipse cx="335.25" cy="267.9531" fill="#ADD1B2" rx="11" ry="11" style="stroke: #EEB258; stroke-width: 1.0;"/><path d="M338.2188,273.5938 Q337.6406,273.8906 337,274.0313 Q336.3594,274.1875 335.6563,274.1875 Q333.1563,274.1875 331.8281,272.5469 Q330.5156,270.8906 330.5156,267.7656 Q330.5156,264.6406 331.8281,262.9844 Q333.1563,261.3281 335.6563,261.3281 Q336.3594,261.3281 337,261.4844 Q337.6563,261.6406 338.2188,261.9375 L338.2188,264.6563 Q337.5938,264.0781 337,263.8125 Q336.4063,263.5313 335.7813,263.5313 Q334.4375,263.5313 333.75,264.6094 Q333.0625,265.6719 333.0625,267.7656 Q333.0625,269.8594 333.75,270.9375 Q334.4375,272 335.7813,272 Q336.4063,272 337,271.7344 Q337.5938,271.4531 338.2188,270.875 L338.2188,273.5938 Z "/><text fill="#FFFFFF" font-family="sans-serif" font-size="12" lengthAdjust="spacingAndGlyphs" textLength="55" x="355.75" y="272.1074">Manager</text><line style="stroke: #EEB258; stroke-width: 1.5;" x1="245" x2="489" y1="283.9531" y2="283.9531"/><line style="stroke: #EEB258; stroke-width: 1.5;" x1="245" x2="489" y1="291.9531" y2="291.9531"/><ellipse cx="255" cy="302.9531" fill="#84BE84" rx="3" ry="3" style="stroke: #038048; stroke-width: 1.0;"/><text fill="#FAF0E6" font-family="sans-serif" font-size="11" lengthAdjust="spacingAndGlyphs" textLength="71" x="264" y="306.1636">createUser()</text><ellipse cx="255" cy="315.7578" fill="#84BE84" rx="3" ry="3" style="stroke: #038048; stroke-width: 1.0;"/><text fill="#FAF0E6" font-family="sans-serif" font-size="11" lengthAdjust="spacingAndGlyphs" textLength="101" x="264" y="318.9683">updateUser(User)</text><ellipse cx="255" cy="328.5625" fill="#84BE84" rx="3" ry="3" style="stroke: #038048; stroke-width: 1.0;"/><text fill="#FAF0E6" font-family="sans-serif" font-size="11" lengthAdjust="spacingAndGlyphs" textLength="97" x="264" y="331.7729">deleteUser(User)</text><ellipse cx="255" cy="341.3672" fill="#84BE84" rx="3" ry="3" style="stroke: #038048; stroke-width: 1.0;"/><text fill="#FAF0E6" font-family="sans-serif" font-size="11" lengthAdjust="spacingAndGlyphs" textLength="92" x="264" y="344.5776">createContract()</text><ellipse cx="255" cy="354.1719" fill="#84BE84" rx="3" ry="3" style="stroke: #038048; stroke-width: 1.0;"/><text fill="#FAF0E6" font-family="sans-serif" font-size="11" lengthAdjust="spacingAndGlyphs" textLength="143" x="264" y="357.3823">updateContract(Contract)</text><ellipse cx="255" cy="366.9766" fill="#84BE84" rx="3" ry="3" style="stroke: #038048; stroke-width: 1.0;"/><text fill="#FAF0E6" font-family="sans-serif" font-size="11" lengthAdjust="spacingAndGlyphs" textLength="220" x="264" y="370.187">assignSupportToEvent(Event, Support)</text><!--MD5=[1372b0db8a45810a4635c25f853d4d30]
class Support--><rect fill="#123749" filter="url(#f9xjv8hsh4ss7)" height="60.8047" id="Support" rx="10" ry="10" style="stroke: #EEB258; stroke-width: 1.5;" width="135" x="525.5" y="283.9531"/><ellipse cx="564.35" cy="299.9531" fill="#ADD1B2" rx="11" ry="11" style="stroke: #EEB258; stroke-width: 1.0;"/><path d="M567.3188,305.5938 Q566.7406,305.8906 566.1,306.0313 Q565.4594,306.1875 564.7563,306.1875 Q562.2563,306.1875 560.9281,304.5469 Q559.6156,302.8906 559.6156,299.7656 Q559.6156,296.6406 560.9281,294.9844 Q562.2563,293.3281 564.7563,293.3281 Q565.4594,293.3281 566.1,293.4844 Q566.7563,293.6406 567.3188,293.9375 L567.3188,296.6563 Q566.6938,296.0781 566.1,295.8125 Q565.5063,295.5313 564.8813,295.5313 Q563.5375,295.5313 562.85,296.6094 Q562.1625,297.6719 562.1625,299.7656 Q562.1625,301.8594 562.85,302.9375 Q563.5375,304 564.8813,304 Q565.5063,304 566.1,303.7344 Q566.6938,303.4531 567.3188,302.875 L567.3188,305.5938 Z "/><text fill="#FFFFFF" font-family="sans-serif" font-size="12" lengthAdjust="spacingAndGlyphs" textLength="50" x="583.65" y="304.1074">Support</text><line style="stroke: #EEB258; stroke-width: 1.5;" x1="526.5" x2="659.5" y1="315.9531" y2="315.9531"/><line style="stroke: #EEB258; stroke-width: 1.5;" x1="526.5" x2="659.5" y1="323.9531" y2="323.9531"/><ellipse cx="536.5" cy="334.9531" fill="#84BE84" rx="3" ry="3" style="stroke: #038048; stroke-width: 1.0;"/><text fill="#FAF0E6" font-family="sans-serif" font-size="11" lengthAdjust="spacingAndGlyphs" textLength="109" x="545.5" y="338.1636">updateEvent(event)</text><!--MD5=[ed8c2953fb56b1059c4252ddbe6e24c1]
reverse link User to Commercial--><path d="M263.31,197.6531 C235.7,220.6031 206.83,244.6031 182.58,264.7531 " fill="none" id="User&lt;-Commercial" style="stroke: #EEB258; stroke-width: 1.0;"/><polygon fill="none" points="259.07,192.0631,278.93,184.6631,268.02,202.8331,259.07,192.0631" style="stroke: #EEB258; stroke-width: 1.0;"/><!--MD5=[db25c41ae6377e017d9f6f1472547e10]
reverse link User to Manager--><path d="M367,212.4531 C367,225.9031 367,239.3631 367,251.8531 " fill="none" id="User&lt;-Manager" style="stroke: #EEB258; stroke-width: 1.0;"/><polygon fill="none" points="360,212.1631,367,192.1631,374,212.1631,360,212.1631" style="stroke: #EEB258; stroke-width: 1.0;"/><!--MD5=[e243c39b650d02afad9e3c91aa92c7cc]
reverse link User to Support--><path d="M470.29,203.7731 C502.67,232.7231 536.13,262.6231 559.92,283.8831 " fill="none" id="User&lt;-Support" style="stroke: #EEB258; stroke-width: 1.0;"/><polygon fill="none" points="465.27,208.6731,455.02,190.1331,474.6,198.2431,465.27,208.6731" style="stroke: #EEB258; stroke-width: 1.0;"/><!--MD5=[7bcd14eea46c8a0b8d8e3524951aa851]
link Commercial to Client--><path d="M124,364.0731 C124,389.5831 124,421.3831 124,449.8831 " fill="none" id="Commercial-Client" style="stroke: #EEB258; stroke-width: 1.0;"/><text fill="#FAF0E6" font-family="sans-serif" font-size="13" lengthAdjust="spacingAndGlyphs" textLength="8" x="115.4375" y="384.1665">1</text><text fill="#FAF0E6" font-family="sans-serif" font-size="13" lengthAdjust="spacingAndGlyphs" textLength="23" x="99.868" y="438.807">0..*</text><!--MD5=[ce08bc35c3f7f79d05b53617cd76f3e3]
link Support to Event--><path d="M589.13,345.3231 C586.03,369.3131 581.5,404.2531 577.27,436.8831 " fill="none" id="Support-Event" style="stroke: #EEB258; stroke-width: 1.0;"/><text fill="#FAF0E6" font-family="sans-serif" font-size="13" lengthAdjust="spacingAndGlyphs" textLength="8" x="579.6298" y="364.7356">1</text><text fill="#FAF0E6" font-family="sans-serif" font-size="13" lengthAdjust="spacingAndGlyphs" textLength="23" x="554.2502" y="425.7407">0..*</text><!--MD5=[0b7a7c5a8f32e7b99c201513ea26e500]
link Commercial to Contract--><path d="M176.47,364.0731 C204,389.5831 238.31,421.3831 269.07,449.8831 " fill="none" id="Commercial-Contract" style="stroke: #EEB258; stroke-width: 1.0;"/><text fill="#FAF0E6" font-family="sans-serif" font-size="13" lengthAdjust="spacingAndGlyphs" textLength="8" x="175.2861" y="384.1665">1</text><text fill="#FAF0E6" font-family="sans-serif" font-size="13" lengthAdjust="spacingAndGlyphs" textLength="23" x="237.0699" y="438.807">0..*</text><!--MD5=[313eda6f05c8f8a186af6d1863a0e298]
link Client to Contract--><path d="M210.13,524.9531 C221.89,524.9531 233.64,524.9531 245.39,524.9531 " fill="none" id="Client-Contract" style="stroke: #EEB258; stroke-width: 1.0;"/><text fill="#FAF0E6" font-family="sans-serif" font-size="13" lengthAdjust="spacingAndGlyphs" textLength="8" x="217.8755" y="521.3624">1</text><text fill="#FAF0E6" font-family="sans-serif" font-size="13" lengthAdjust="spacingAndGlyphs" textLength="23" x="218.008" y="521.2379">0..*</text><!--MD5=[b3061763e6ba31456028acc69f0bbfe8]
link Contract to Event--><path d="M452.84,524.9531 C464.48,524.9531 476.12,524.9531 487.76,524.9531 " fill="none" id="Contract-Event" style="stroke: #EEB258; stroke-width: 1.0;"/><text fill="#FAF0E6" font-family="sans-serif" font-size="13" lengthAdjust="spacingAndGlyphs" textLength="8" x="460.4225" y="521.482">1</text><text fill="#FAF0E6" font-family="sans-serif" font-size="13" lengthAdjust="spacingAndGlyphs" textLength="8" x="471.9215" y="521.3093">1</text><!--MD5=[393252ea103487e43d6549a1fbb52618]
@startuml
skinparam backgroundColor #123749
skinparam roundcorner 20
skinparam classfontcolor lemon chiffon
skinparam titlefontcolor linen
skinparam arrowfontcolor linen
skinparam attributefontcolor linen

skinparam class {
BackgroundColor #123749
ArrowColor #EEB258
BorderColor #EEB258
AttributeFontColor linen
}
title Class diagram

  class User {
    - id: uuid
    - name: str
    - email: str
    - password: hashed_str
    - role: str
    - permissions: Permissions
    + getContracts(): list
    + getEvents(): list
    + getUsers(): list
  }

  class Commercial extends User {
    + createClient()
    + updateClient(Client)
    + createEvent()
    + updateContract(Contract)
  }

  class Manager extends User {
    + createUser()
    + updateUser(User)
    + deleteUser(User)
    + createContract()
    + updateContract(Contract)
    + assignSupportToEvent(Event, Support)
  }

  class Support extends User {
    + updateEvent(event)
  }

together {
  class Event {
    - id: int
    - contract_id: int
    - client_info: dict
    - date_start: str
    - date_end: str
    - epic_contact: Support
    - location: str
    - attendees: str
    - notes: str
    + method1(): ReturnType
  }

  class Contract {
    - id: int
    - client: Client
    - epic_contact: Commercial
    - total_amount: float
    - due_amount: float
    - date_created: str
    - signed_status: bool
    + get_client_infos(self.Client): dict
  }

  class Client {
    - id: int
    - name: str
    - email: str
    - phone: str
    - company: str
    - date_created: str
    - date_updated: str
    - epic_contact: Commercial
  }
}

Commercial "1" -down- "0..*" Client
Support "1" - - "0..*" Event
Commercial "1" -down- "0..*" Contract
Client "1" -right- "0..*" Contract
Contract "1" -right- "1" Event

@enduml

PlantUML version 1.2020.02(Sun Mar 01 11:22:07 CET 2020)
(GPL source distribution)
Java Runtime: OpenJDK Runtime Environment
JVM: OpenJDK 64-Bit Server VM
Java Version: 11.0.20.1+1-post-Ubuntu-0ubuntu122.04
Operating System: Linux
Default Encoding: UTF-8
Language: fr
Country: FR
--></g></svg>