<?xml version="1.0" encoding="UTF-8" standalone="no"?><svg xmlns="http://www.w3.org/2000/svg" xmlns:xlink="http://www.w3.org/1999/xlink" contentScriptType="application/ecmascript" contentStyleType="text/css" height="439px" preserveAspectRatio="none" style="width:580px;height:439px;background:#123749;" version="1.1" viewBox="0 0 580 439" width="580px" zoomAndPan="magnify"><defs><filter height="300%" id="f1qzxpafnuqgiw" width="300%" x="-1" y="-1"><feGaussianBlur result="blurOut" stdDeviation="2.0"/><feColorMatrix in="blurOut" result="blurOut2" type="matrix" values="0 0 0 0 0 0 0 0 0 0 0 0 0 0 0 0 0 0 .4 0"/><feOffset dx="4.0" dy="4.0" in="blurOut2" result="blurOut3"/><feBlend in="SourceGraphic" in2="blurOut3" mode="normal"/></filter></defs><g><text fill="#FAF0E6" font-family="sans-serif" font-size="18" lengthAdjust="spacingAndGlyphs" textLength="122" x="233" y="16.708">Class diagram</text><!--MD5=[ed6624c6556d5e7b1bd23032162d20b7]
class Client--><rect fill="#123749" filter="url(#f1qzxpafnuqgiw)" height="163.2422" id="Client" rx="10" ry="10" style="stroke: #EEB258; stroke-width: 1.5;" width="156" x="9.5" y="41.9531"/><ellipse cx="65.75" cy="57.9531" fill="#ADD1B2" rx="11" ry="11" style="stroke: #EEB258; stroke-width: 1.0;"/><path d="M68.7188,63.5938 Q68.1406,63.8906 67.5,64.0313 Q66.8594,64.1875 66.1563,64.1875 Q63.6563,64.1875 62.3281,62.5469 Q61.0156,60.8906 61.0156,57.7656 Q61.0156,54.6406 62.3281,52.9844 Q63.6563,51.3281 66.1563,51.3281 Q66.8594,51.3281 67.5,51.4844 Q68.1563,51.6406 68.7188,51.9375 L68.7188,54.6563 Q68.0938,54.0781 67.5,53.8125 Q66.9063,53.5313 66.2813,53.5313 Q64.9375,53.5313 64.25,54.6094 Q63.5625,55.6719 63.5625,57.7656 Q63.5625,59.8594 64.25,60.9375 Q64.9375,62 66.2813,62 Q66.9063,62 67.5,61.7344 Q68.0938,61.4531 68.7188,60.875 L68.7188,63.5938 Z "/><text fill="#FFFFFF" font-family="sans-serif" font-size="12" lengthAdjust="spacingAndGlyphs" textLength="35" x="86.25" y="62.1074">Client</text><line style="stroke: #EEB258; stroke-width: 1.5;" x1="10.5" x2="164.5" y1="73.9531" y2="73.9531"/><rect fill="none" height="6" style="stroke: #C82930; stroke-width: 1.0;" width="6" x="17.5" y="81.9531"/><text fill="#FAF0E6" font-family="sans-serif" font-size="11" lengthAdjust="spacingAndGlyphs" textLength="32" x="29.5" y="88.1636">id: int</text><rect fill="none" height="6" style="stroke: #C82930; stroke-width: 1.0;" width="6" x="17.5" y="94.7578"/><text fill="#FAF0E6" font-family="sans-serif" font-size="11" lengthAdjust="spacingAndGlyphs" textLength="56" x="29.5" y="100.9683">name: str</text><rect fill="none" height="6" style="stroke: #C82930; stroke-width: 1.0;" width="6" x="17.5" y="107.5625"/><text fill="#FAF0E6" font-family="sans-serif" font-size="11" lengthAdjust="spacingAndGlyphs" textLength="55" x="29.5" y="113.7729">email: str</text><rect fill="none" height="6" style="stroke: #C82930; stroke-width: 1.0;" width="6" x="17.5" y="120.3672"/><text fill="#FAF0E6" font-family="sans-serif" font-size="11" lengthAdjust="spacingAndGlyphs" textLength="59" x="29.5" y="126.5776">phone: str</text><rect fill="none" height="6" style="stroke: #C82930; stroke-width: 1.0;" width="6" x="17.5" y="133.1719"/><text fill="#FAF0E6" font-family="sans-serif" font-size="11" lengthAdjust="spacingAndGlyphs" textLength="75" x="29.5" y="139.3823">company: str</text><rect fill="none" height="6" style="stroke: #C82930; stroke-width: 1.0;" width="6" x="17.5" y="145.9766"/><text fill="#FAF0E6" font-family="sans-serif" font-size="11" lengthAdjust="spacingAndGlyphs" textLength="98" x="29.5" y="152.187">date_created: str</text><rect fill="none" height="6" style="stroke: #C82930; stroke-width: 1.0;" width="6" x="17.5" y="158.7813"/><text fill="#FAF0E6" font-family="sans-serif" font-size="11" lengthAdjust="spacingAndGlyphs" textLength="101" x="29.5" y="164.9917">date_updated: str</text><rect fill="none" height="6" style="stroke: #C82930; stroke-width: 1.0;" width="6" x="17.5" y="171.5859"/><text fill="#FAF0E6" font-family="sans-serif" font-size="11" lengthAdjust="spacingAndGlyphs" textLength="94" x="29.5" y="177.7964">epic_contact: str</text><line style="stroke: #EEB258; stroke-width: 1.5;" x1="10.5" x2="164.5" y1="184.3906" y2="184.3906"/><ellipse cx="20.5" cy="195.3906" fill="#84BE84" rx="3" ry="3" style="stroke: #038048; stroke-width: 1.0;"/><text fill="#FAF0E6" font-family="sans-serif" font-size="11" lengthAdjust="spacingAndGlyphs" textLength="130" x="29.5" y="198.6011">method1(): ReturnType</text><!--MD5=[461026a38b737c4ce5e8254b9a577e21]
class Contract--><rect fill="#123749" filter="url(#f1qzxpafnuqgiw)" height="150.4375" id="Contract" rx="10" ry="10" style="stroke: #EEB258; stroke-width: 1.5;" width="163" x="6" y="277.9531"/><ellipse cx="56.25" cy="293.9531" fill="#ADD1B2" rx="11" ry="11" style="stroke: #EEB258; stroke-width: 1.0;"/><path d="M59.2188,299.5938 Q58.6406,299.8906 58,300.0313 Q57.3594,300.1875 56.6563,300.1875 Q54.1563,300.1875 52.8281,298.5469 Q51.5156,296.8906 51.5156,293.7656 Q51.5156,290.6406 52.8281,288.9844 Q54.1563,287.3281 56.6563,287.3281 Q57.3594,287.3281 58,287.4844 Q58.6563,287.6406 59.2188,287.9375 L59.2188,290.6563 Q58.5938,290.0781 58,289.8125 Q57.4063,289.5313 56.7813,289.5313 Q55.4375,289.5313 54.75,290.6094 Q54.0625,291.6719 54.0625,293.7656 Q54.0625,295.8594 54.75,296.9375 Q55.4375,298 56.7813,298 Q57.4063,298 58,297.7344 Q58.5938,297.4531 59.2188,296.875 L59.2188,299.5938 Z "/><text fill="#FFFFFF" font-family="sans-serif" font-size="12" lengthAdjust="spacingAndGlyphs" textLength="54" x="76.75" y="298.1074">Contract</text><line style="stroke: #EEB258; stroke-width: 1.5;" x1="7" x2="168" y1="309.9531" y2="309.9531"/><rect fill="none" height="6" style="stroke: #C82930; stroke-width: 1.0;" width="6" x="14" y="317.9531"/><text fill="#FAF0E6" font-family="sans-serif" font-size="11" lengthAdjust="spacingAndGlyphs" textLength="42" x="26" y="324.1636">id: uuid</text><rect fill="none" height="6" style="stroke: #C82930; stroke-width: 1.0;" width="6" x="14" y="330.7578"/><text fill="#FAF0E6" font-family="sans-serif" font-size="11" lengthAdjust="spacingAndGlyphs" textLength="124" x="26" y="336.9683">client_info: foreignkey</text><rect fill="none" height="6" style="stroke: #C82930; stroke-width: 1.0;" width="6" x="14" y="343.5625"/><text fill="#FAF0E6" font-family="sans-serif" font-size="11" lengthAdjust="spacingAndGlyphs" textLength="137" x="26" y="349.7729">epic_contact: foreignkey</text><rect fill="none" height="6" style="stroke: #C82930; stroke-width: 1.0;" width="6" x="14" y="356.3672"/><text fill="#FAF0E6" font-family="sans-serif" font-size="11" lengthAdjust="spacingAndGlyphs" textLength="107" x="26" y="362.5776">total_amount: float</text><rect fill="none" height="6" style="stroke: #C82930; stroke-width: 1.0;" width="6" x="14" y="369.1719"/><text fill="#FAF0E6" font-family="sans-serif" font-size="11" lengthAdjust="spacingAndGlyphs" textLength="103" x="26" y="375.3823">due_amount: float</text><rect fill="none" height="6" style="stroke: #C82930; stroke-width: 1.0;" width="6" x="14" y="381.9766"/><text fill="#FAF0E6" font-family="sans-serif" font-size="11" lengthAdjust="spacingAndGlyphs" textLength="98" x="26" y="388.187">date_created: str</text><rect fill="none" height="6" style="stroke: #C82930; stroke-width: 1.0;" width="6" x="14" y="394.7813"/><text fill="#FAF0E6" font-family="sans-serif" font-size="11" lengthAdjust="spacingAndGlyphs" textLength="112" x="26" y="400.9917">signed_status: bool</text><line style="stroke: #EEB258; stroke-width: 1.5;" x1="7" x2="168" y1="407.5859" y2="407.5859"/><ellipse cx="17" cy="418.5859" fill="#84BE84" rx="3" ry="3" style="stroke: #038048; stroke-width: 1.0;"/><text fill="#FAF0E6" font-family="sans-serif" font-size="11" lengthAdjust="spacingAndGlyphs" textLength="130" x="26" y="421.7964">method1(): ReturnType</text><!--MD5=[ac13618b1a974308c1f12eb6c57723dc]
class Event--><rect fill="#123749" filter="url(#f1qzxpafnuqgiw)" height="188.8516" id="Event" rx="10" ry="10" style="stroke: #EEB258; stroke-width: 1.5;" width="169" x="201" y="28.9531"/><ellipse cx="263.75" cy="44.9531" fill="#ADD1B2" rx="11" ry="11" style="stroke: #EEB258; stroke-width: 1.0;"/><path d="M266.7188,50.5938 Q266.1406,50.8906 265.5,51.0313 Q264.8594,51.1875 264.1563,51.1875 Q261.6563,51.1875 260.3281,49.5469 Q259.0156,47.8906 259.0156,44.7656 Q259.0156,41.6406 260.3281,39.9844 Q261.6563,38.3281 264.1563,38.3281 Q264.8594,38.3281 265.5,38.4844 Q266.1563,38.6406 266.7188,38.9375 L266.7188,41.6563 Q266.0938,41.0781 265.5,40.8125 Q264.9063,40.5313 264.2813,40.5313 Q262.9375,40.5313 262.25,41.6094 Q261.5625,42.6719 261.5625,44.7656 Q261.5625,46.8594 262.25,47.9375 Q262.9375,49 264.2813,49 Q264.9063,49 265.5,48.7344 Q266.0938,48.4531 266.7188,47.875 L266.7188,50.5938 Z "/><text fill="#FFFFFF" font-family="sans-serif" font-size="12" lengthAdjust="spacingAndGlyphs" textLength="35" x="284.25" y="49.1074">Event</text><line style="stroke: #EEB258; stroke-width: 1.5;" x1="202" x2="369" y1="60.9531" y2="60.9531"/><rect fill="none" height="6" style="stroke: #C82930; stroke-width: 1.0;" width="6" x="209" y="68.9531"/><text fill="#FAF0E6" font-family="sans-serif" font-size="11" lengthAdjust="spacingAndGlyphs" textLength="42" x="221" y="75.1636">id: uuid</text><rect fill="none" height="6" style="stroke: #C82930; stroke-width: 1.0;" width="6" x="209" y="81.7578"/><text fill="#FAF0E6" font-family="sans-serif" font-size="11" lengthAdjust="spacingAndGlyphs" textLength="94" x="221" y="87.9683">contract_id: uuid</text><rect fill="none" height="6" style="stroke: #C82930; stroke-width: 1.0;" width="6" x="209" y="94.5625"/><text fill="#FAF0E6" font-family="sans-serif" font-size="11" lengthAdjust="spacingAndGlyphs" textLength="95" x="221" y="100.7729">client: foreignStr</text><rect fill="none" height="6" style="stroke: #C82930; stroke-width: 1.0;" width="6" x="209" y="107.3672"/><text fill="#FAF0E6" font-family="sans-serif" font-size="11" lengthAdjust="spacingAndGlyphs" textLength="143" x="221" y="113.5776">cient_contact: foreignDict</text><rect fill="none" height="6" style="stroke: #C82930; stroke-width: 1.0;" width="6" x="209" y="120.1719"/><text fill="#FAF0E6" font-family="sans-serif" font-size="11" lengthAdjust="spacingAndGlyphs" textLength="82" x="221" y="126.3823">date_start: str</text><rect fill="none" height="6" style="stroke: #C82930; stroke-width: 1.0;" width="6" x="209" y="132.9766"/><text fill="#FAF0E6" font-family="sans-serif" font-size="11" lengthAdjust="spacingAndGlyphs" textLength="76" x="221" y="139.187">date_end: str</text><rect fill="none" height="6" style="stroke: #C82930; stroke-width: 1.0;" width="6" x="209" y="145.7813"/><text fill="#FAF0E6" font-family="sans-serif" font-size="11" lengthAdjust="spacingAndGlyphs" textLength="135" x="221" y="151.9917">epic_contact: foreignStr</text><rect fill="none" height="6" style="stroke: #C82930; stroke-width: 1.0;" width="6" x="209" y="158.5859"/><text fill="#FAF0E6" font-family="sans-serif" font-size="11" lengthAdjust="spacingAndGlyphs" textLength="68" x="221" y="164.7964">location: str</text><rect fill="none" height="6" style="stroke: #C82930; stroke-width: 1.0;" width="6" x="209" y="171.3906"/><text fill="#FAF0E6" font-family="sans-serif" font-size="11" lengthAdjust="spacingAndGlyphs" textLength="81" x="221" y="177.6011">attendees: str</text><rect fill="none" height="6" style="stroke: #C82930; stroke-width: 1.0;" width="6" x="209" y="184.1953"/><text fill="#FAF0E6" font-family="sans-serif" font-size="11" lengthAdjust="spacingAndGlyphs" textLength="56" x="221" y="190.4058">notes: str</text><line style="stroke: #EEB258; stroke-width: 1.5;" x1="202" x2="369" y1="197" y2="197"/><ellipse cx="212" cy="208" fill="#84BE84" rx="3" ry="3" style="stroke: #038048; stroke-width: 1.0;"/><text fill="#FAF0E6" font-family="sans-serif" font-size="11" lengthAdjust="spacingAndGlyphs" textLength="130" x="221" y="211.2104">method1(): ReturnType</text><!--MD5=[3fd616f346a44cd59a91eb10b19e157c]
class User--><rect fill="#123749" filter="url(#f1qzxpafnuqgiw)" height="137.6328" id="User" rx="10" ry="10" style="stroke: #EEB258; stroke-width: 1.5;" width="164" x="405.5" y="54.4531"/><ellipse cx="468.75" cy="70.4531" fill="#ADD1B2" rx="11" ry="11" style="stroke: #EEB258; stroke-width: 1.0;"/><path d="M471.7188,76.0938 Q471.1406,76.3906 470.5,76.5313 Q469.8594,76.6875 469.1563,76.6875 Q466.6563,76.6875 465.3281,75.0469 Q464.0156,73.3906 464.0156,70.2656 Q464.0156,67.1406 465.3281,65.4844 Q466.6563,63.8281 469.1563,63.8281 Q469.8594,63.8281 470.5,63.9844 Q471.1563,64.1406 471.7188,64.4375 L471.7188,67.1563 Q471.0938,66.5781 470.5,66.3125 Q469.9063,66.0313 469.2813,66.0313 Q467.9375,66.0313 467.25,67.1094 Q466.5625,68.1719 466.5625,70.2656 Q466.5625,72.3594 467.25,73.4375 Q467.9375,74.5 469.2813,74.5 Q469.9063,74.5 470.5,74.2344 Q471.0938,73.9531 471.7188,73.375 L471.7188,76.0938 Z "/><text fill="#FFFFFF" font-family="sans-serif" font-size="12" lengthAdjust="spacingAndGlyphs" textLength="29" x="489.25" y="74.6074">User</text><line style="stroke: #EEB258; stroke-width: 1.5;" x1="406.5" x2="568.5" y1="86.4531" y2="86.4531"/><rect fill="none" height="6" style="stroke: #C82930; stroke-width: 1.0;" width="6" x="413.5" y="94.4531"/><text fill="#FAF0E6" font-family="sans-serif" font-size="11" lengthAdjust="spacingAndGlyphs" textLength="42" x="425.5" y="100.6636">id: uuid</text><rect fill="none" height="6" style="stroke: #C82930; stroke-width: 1.0;" width="6" x="413.5" y="107.2578"/><text fill="#FAF0E6" font-family="sans-serif" font-size="11" lengthAdjust="spacingAndGlyphs" textLength="56" x="425.5" y="113.4683">name: str</text><rect fill="none" height="6" style="stroke: #C82930; stroke-width: 1.0;" width="6" x="413.5" y="120.0625"/><text fill="#FAF0E6" font-family="sans-serif" font-size="11" lengthAdjust="spacingAndGlyphs" textLength="55" x="425.5" y="126.2729">email: str</text><rect fill="none" height="6" style="stroke: #C82930; stroke-width: 1.0;" width="6" x="413.5" y="132.8672"/><text fill="#FAF0E6" font-family="sans-serif" font-size="11" lengthAdjust="spacingAndGlyphs" textLength="128" x="425.5" y="139.0776">password: hashed_str</text><rect fill="none" height="6" style="stroke: #C82930; stroke-width: 1.0;" width="6" x="413.5" y="145.6719"/><text fill="#FAF0E6" font-family="sans-serif" font-size="11" lengthAdjust="spacingAndGlyphs" textLength="46" x="425.5" y="151.8823">role: str</text><rect fill="none" height="6" style="stroke: #C82930; stroke-width: 1.0;" width="6" x="413.5" y="158.4766"/><text fill="#FAF0E6" font-family="sans-serif" font-size="11" lengthAdjust="spacingAndGlyphs" textLength="138" x="425.5" y="164.687">permissions: foreignkey</text><line style="stroke: #EEB258; stroke-width: 1.5;" x1="406.5" x2="568.5" y1="171.2813" y2="171.2813"/><ellipse cx="416.5" cy="182.2813" fill="#84BE84" rx="3" ry="3" style="stroke: #038048; stroke-width: 1.0;"/><text fill="#FAF0E6" font-family="sans-serif" font-size="11" lengthAdjust="spacingAndGlyphs" textLength="130" x="425.5" y="185.4917">method1(): ReturnType</text><!--MD5=[313eda6f05c8f8a186af6d1863a0e298]
link Client to Contract--><path d="M87.5,204.9831 C87.5,228.6331 87.5,254.3731 87.5,277.6131 " fill="none" id="Client-Contract" style="stroke: #EEB258; stroke-width: 1.0;"/><!--MD5=[0530c6ac33e3dbbd3ea9e743a9e4453a]
@startuml
skinparam backgroundColor #123749
skinparam roundcorner 20
skinparam classfontcolor lemon chiffon
skinparam titlefontcolor linen
skinparam arrowfontcolor linen
skinparam attributefontcolor linen

skinparam class {
BackgroundColor #123749
ArrowColor #EEB258
BorderColor #EEB258
AttributeFontColor linen
}
title Class diagram
class Client {
  - id: int
  - name: str
  - email: str
  - phone: str
  - company: str
  - date_created: str
  - date_updated: str
  - epic_contact: str
  + method1(): ReturnType
}

class Contract {
  - id: uuid
  - client_info: foreignkey
  - epic_contact: foreignkey
  - total_amount: float
  - due_amount: float
  - date_created: str
  - signed_status: bool
  + method1(): ReturnType
}

class Event {
  - id: uuid
  - contract_id: uuid
  - client: foreignStr
  - cient_contact: foreignDict
  - date_start: str
  - date_end: str
  - epic_contact: foreignStr
  - location: str
  - attendees: str
  - notes: str
  + method1(): ReturnType
}

class User {
  - id: uuid
  - name: str
  - email: str
  - password: hashed_str
  - role: str
  - permissions: foreignkey
  + method1(): ReturnType
}
Client - - Contract
@enduml

PlantUML version 1.2020.02(Sun Mar 01 11:22:07 CET 2020)
(GPL source distribution)
Java Runtime: OpenJDK Runtime Environment
JVM: OpenJDK 64-Bit Server VM
Java Version: 11.0.20.1+1-post-Ubuntu-0ubuntu122.04
Operating System: Linux
Default Encoding: UTF-8
Language: fr
Country: FR
--></g></svg>